
<svg version="1.0" xmlns="http://www.w3.org/2000/svg"
 width="1024.000000pt" height="1024.000000pt" viewBox="0 0 1024.000000 1024.000000"
 preserveAspectRatio="xMidYMid meet">

<g transform="translate(0.000000,1024.000000) scale(0.100000,-0.100000)"
fill="#000000" stroke="none">
<path d="M0 5120 l0 -5120 5120 0 5120 0 0 5120 0 5120 -5120 0 -5120 0 0
-5120z m5495 3020 c702 -107 1334 -419 1833 -905 249 -241 468 -537 610 -821
146 -294 272 -702 289 -941 l6 -82 -36 -36 c-45 -45 -99 -49 -146 -10 -34 29
-44 56 -67 175 -55 296 -165 607 -308 869 -302 551 -867 1053 -1466 1301 -494
205 -994 278 -1476 215 -359 -47 -635 -132 -974 -302 -590 -294 -1061 -757
-1330 -1308 -130 -266 -190 -442 -250 -732 -17 -82 -35 -161 -41 -176 -45
-110 -219 -73 -219 47 0 68 58 350 101 495 108 356 252 642 479 946 261 351
568 618 986 858 399 229 803 364 1264 423 160 20 565 12 745 -16z m-25 -819
c179 -90 404 -205 500 -256 148 -78 344 -179 1100 -564 91 -46 120 -83 120
-152 0 -71 -27 -94 -235 -197 -271 -135 -547 -269 -571 -276 -33 -10 -57 -43
-56 -76 0 -16 -3 -32 -7 -35 -5 -2 -35 6 -67 18 -53 21 -59 26 -60 53 -2 57
-4 64 -29 80 -50 32 -78 23 -431 -151 -584 -289 -626 -308 -664 -308 -40 0
-159 55 -655 302 -207 102 -345 165 -371 168 -36 5 -43 2 -67 -27 -17 -20 -27
-43 -27 -64 0 -30 -4 -34 -53 -54 -66 -28 -67 -27 -67 4 0 14 -5 34 -11 45 -6
12 -144 86 -352 190 -420 208 -466 234 -491 280 -23 43 -16 95 19 138 17 19
139 87 362 201 186 95 435 223 553 285 118 62 305 158 415 215 110 56 288 148
395 203 267 139 292 148 365 144 55 -3 88 -17 385 -166z m1708 -1393 c13 -13
16 -116 4 -134 -4 -7 -244 -129 -534 -272 -509 -251 -528 -259 -528 -234 0 14
-10 36 -22 49 -44 47 -63 40 -540 -198 l-443 -221 -57 4 c-50 4 -109 30 -493
221 -240 119 -448 217 -463 217 -35 0 -72 -37 -72 -72 0 -15 -4 -28 -8 -28
-23 0 -1050 520 -1055 535 -9 21 -9 98 -1 119 3 9 12 16 20 16 7 0 109 -47
226 -104 531 -259 586 -285 602 -272 11 8 16 34 18 91 3 78 4 80 29 83 18 2
203 -85 600 -282 443 -221 582 -286 611 -286 29 0 134 49 465 218 503 256 722
362 745 362 38 0 51 -30 44 -101 -10 -107 -3 -107 172 -19 209 104 654 320
662 320 3 0 11 -5 18 -12z m-4540 -174 c31 -20 55 -79 47 -113 -4 -14 -18 -38
-33 -53 -21 -23 -34 -28 -75 -28 -40 0 -53 5 -78 29 -23 24 -29 38 -29 74 0
96 88 144 168 91z m4988 10 c91 -43 81 -176 -15 -205 -51 -15 -95 1 -122 45
-36 59 -15 136 44 161 42 18 52 18 93 -1z m-4302 -350 c142 -69 399 -190 570
-269 171 -78 472 -222 669 -319 l357 -176 0 -225 c0 -124 -4 -225 -9 -225 -5
0 -77 36 -160 80 -221 116 -251 111 -251 -46 l0 -94 38 -23 c20 -13 115 -63
210 -112 l172 -88 0 -139 c0 -146 -3 -154 -45 -124 -11 7 -114 61 -230 119
-115 59 -225 116 -242 127 l-33 20 0 287 c0 266 -2 290 -19 319 -16 26 -68 56
-278 162 -700 353 -1030 525 -1056 550 -41 38 -57 81 -57 154 0 87 37 144 95
147 6 1 127 -56 269 -125z m3828 97 c30 -26 33 -35 36 -101 6 -99 -13 -140
-87 -184 -31 -19 -150 -81 -266 -140 -115 -58 -293 -149 -395 -201 -102 -53
-261 -135 -355 -182 -207 -105 -280 -148 -291 -171 -5 -9 -11 -152 -14 -316
l-5 -300 -265 -138 c-146 -76 -268 -138 -272 -138 -14 0 -9 277 5 287 6 6 93
52 192 103 99 51 188 99 198 108 26 23 25 170 -2 203 -31 39 -71 29 -243 -61
l-158 -82 0 224 0 223 403 202 c221 111 503 249 627 306 124 58 355 169 515
246 159 78 302 141 317 141 16 0 41 -12 60 -29z m-4449 -184 c102 -60 154
-163 144 -283 -20 -258 -356 -353 -514 -146 -110 145 -62 350 101 433 56 28
67 30 142 27 65 -3 90 -9 127 -31z m5025 -2 c142 -77 189 -257 106 -401 -113
-197 -413 -179 -510 31 -64 137 -1 311 139 380 45 22 62 25 132 22 66 -3 90
-8 133 -32z m-5721 -170 c30 -20 49 -85 37 -127 -12 -41 -65 -78 -111 -78 -51
0 -105 54 -107 106 -2 97 99 152 181 99z m6254 10 c33 -17 69 -69 69 -98 0
-33 -29 -82 -59 -100 -81 -47 -176 9 -173 103 1 40 18 68 55 90 39 24 68 25
108 5z m-1161 -276 c9 -25 33 -71 53 -101 21 -30 37 -58 37 -61 0 -4 -81 -47
-180 -97 -99 -50 -184 -98 -190 -109 -5 -11 -10 -74 -10 -140 0 -124 8 -151
47 -151 8 0 72 29 142 65 69 36 134 65 143 65 10 0 25 -11 34 -25 24 -37 17
-184 -10 -214 -11 -12 -103 -64 -205 -116 -103 -52 -244 -127 -316 -166 -181
-98 -1376 -727 -1398 -735 -16 -6 -17 3 -15 126 l3 133 75 41 c41 23 131 71
200 108 591 311 525 282 580 257 23 -10 49 -19 57 -19 21 0 489 239 507 259
12 13 16 78 21 371 4 195 9 358 12 363 7 11 376 196 387 194 4 -2 16 -23 26
-48z m-3820 -59 l200 -100 2 -362 3 -363 260 -132 260 -131 48 20 48 21 192
-99 c106 -54 289 -148 407 -209 l215 -110 3 -138 c1 -75 1 -137 -1 -137 -2 0
-45 22 -95 50 -50 27 -167 87 -259 134 -92 47 -253 131 -358 187 -175 93 -472
250 -995 524 -113 59 -215 118 -227 132 -20 21 -23 35 -23 114 0 76 3 92 20
109 11 11 24 20 30 20 5 0 70 -30 144 -67 132 -66 134 -66 160 -50 26 17 26
19 26 140 0 111 -2 125 -21 145 -11 13 -96 61 -190 107 -93 47 -169 90 -169
95 0 6 15 33 34 60 19 27 42 70 51 95 10 25 22 45 26 45 5 0 99 -45 209 -100z
m-1207 -44 c18 -7 41 -25 50 -40 10 -15 34 -107 53 -204 89 -454 261 -861 497
-1179 362 -486 798 -817 1380 -1047 354 -140 852 -218 1187 -187 439 41 761
131 1135 316 868 428 1422 1165 1605 2135 27 143 40 174 82 200 42 25 74 25
116 0 51 -31 65 -75 53 -169 -23 -184 -88 -441 -166 -656 -127 -351 -349 -718
-615 -1013 -261 -291 -643 -568 -1028 -747 -371 -172 -726 -267 -1132 -304
-446 -41 -980 49 -1430 241 -835 356 -1428 952 -1745 1752 -86 218 -176 572
-191 748 -8 88 9 132 59 153 41 18 50 18 90 1z m571 -237 c65 -57 55 -148 -19
-183 -43 -21 -63 -20 -103 4 -46 28 -68 82 -53 131 25 81 111 105 175 48z
m4994 15 c78 -54 63 -178 -26 -205 -113 -34 -191 114 -102 194 35 31 92 37
128 11z m-3858 -54 l60 -30 0 -64 c0 -35 3 -84 6 -110 7 -47 8 -48 78 -83 39
-19 97 -51 129 -70 l57 -34 0 -70 c0 -40 -4 -69 -10 -69 -6 0 -96 46 -200 102
l-190 103 0 177 c0 98 2 178 5 178 3 0 32 -14 65 -30z m2664 -141 c3 -94 4
-174 1 -179 -5 -9 -388 -210 -399 -210 -3 0 -6 34 -6 75 l0 75 135 67 135 68
0 107 0 108 58 29 c31 17 60 30 63 31 3 0 9 -77 13 -171z m726 -569 c16 -16
20 -33 20 -90 0 -75 -15 -124 -46 -152 -11 -9 -161 -91 -334 -184 -173 -92
-421 -223 -550 -292 -263 -140 -796 -417 -998 -519 -187 -95 -195 -94 -425 22
-230 117 -1135 587 -1317 685 -80 42 -219 117 -310 165 -177 95 -215 122 -236
172 -31 72 -11 203 31 203 8 0 108 -49 222 -109 1130 -591 1816 -941 1847
-941 35 0 67 17 1526 787 345 183 522 272 538 273 6 0 21 -9 32 -20z"/>
<path d="M4955 7184 c-49 -25 -290 -148 -535 -274 -245 -125 -553 -283 -685
-350 -267 -136 -385 -199 -385 -206 0 -4 373 -191 597 -299 l141 -68 327 163
c227 112 335 160 351 157 20 -4 27 4 53 58 51 111 179 186 290 171 106 -14
204 -91 238 -187 15 -42 21 -48 53 -53 19 -3 168 -72 330 -152 210 -105 305
-147 330 -147 25 0 130 47 384 174 192 96 349 178 348 183 0 21 -1688 876
-1725 875 -12 0 -62 -20 -112 -45z m782 -526 c364 -183 661 -337 660 -343 -4
-11 -172 -96 -227 -115 -35 -12 -43 -8 -560 250 -411 205 -530 260 -550 255
-14 -3 -256 -121 -539 -261 l-514 -255 -106 51 c-182 88 -217 50 275 300 615
312 888 449 894 450 3 0 303 -149 667 -332z"/>
<path d="M5009 6347 c-39 -26 -66 -89 -56 -129 11 -42 55 -87 97 -98 100 -27
189 81 145 174 -36 75 -118 99 -186 53z"/>
<path d="M4625 6084 c-82 -42 -156 -82 -164 -89 -11 -11 37 -38 294 -164 170
-83 315 -151 323 -151 17 0 612 300 612 309 0 8 -328 176 -333 171 -2 -3 -11
-24 -22 -48 -56 -129 -249 -193 -383 -126 -57 28 -116 90 -134 141 -7 18 -19
33 -28 33 -8 0 -82 -34 -165 -76z"/>
<path d="M2514 5190 c-41 -16 -74 -68 -74 -117 0 -39 5 -50 39 -84 31 -31 46
-39 76 -39 104 0 167 116 109 199 -29 41 -101 61 -150 41z"/>
<path d="M7534 5181 c-44 -27 -64 -59 -64 -104 0 -141 180 -172 236 -41 24 58
-12 128 -79 153 -40 15 -57 14 -93 -8z"/>
</g>
</svg>
